<?xml version="1.0" encoding="UTF-8" standalone="no"?>
<!DOCTYPE svg PUBLIC "-//W3C//DTD SVG 1.1//EN" "http://www.w3.org/Graphics/SVG/1.1/DTD/svg11.dtd">
<svg xmlns="http://www.w3.org/2000/svg" version="1.1" viewBox="0 0 627 394">
<path stroke="#ffffff" stroke-width="2.0" fill="none" stroke-linecap="butt" vector-effect="non-scaling-stroke" d="
  M 237.51 175.92
  C 237.51 175.85 237.46 175.80 237.39 175.80
  L 237.37 175.80
  C 237.30 175.80 237.25 175.85 237.25 175.92
  L 237.25 199.58
  C 237.25 199.65 237.30 199.70 237.37 199.70
  L 237.39 199.70
  C 237.46 199.70 237.51 199.65 237.51 199.58
  L 237.51 175.92"
/>
<path fill="#ffffff" d="
  M 305.50 177.71
  Q 303.18 179.07 303.50 181.71
  Q 302.53 182.04 301.94 183.19
  Q 292.46 201.48 282.75 220.43
  C 282.61 220.70 282.29 220.89 281.91 220.93
  L 278.98 221.25
  Q 277.68 221.40 278.26 220.30
  L 300.59 177.91
  C 300.81 177.50 300.50 177.00 300.03 177.00
  L 275.00 177.00
  C 274.66 177.00 274.36 176.85 274.21 176.60
  Q 273.65 175.64 274.22 174.66
  C 274.36 174.41 274.66 174.25 275.00 174.24
  L 305.70 173.81
  C 306.28 173.80 306.67 174.44 306.45 175.05
  L 305.50 177.71
  Z"
/>
<path fill="#ffffff" d="
  M 465.35 214.91
  Q 467.26 217.49 469.81 220.53
  Q 470.99 221.95 469.29 221.92
  L 466.73 221.87
  C 466.49 221.87 466.21 221.67 465.97 221.35
  L 453.17 203.75
  C 452.96 203.45 452.97 203.05 453.19 202.77
  L 472.37 178.52
  Q 473.47 177.14 471.65 177.02
  L 466.10 176.65
  C 465.57 176.61 465.08 176.81 464.79 177.17
  L 445.09 202.10
  Q 444.00 203.48 444.00 205.41
  Q 444.00 213.17 444.00 219.23
  Q 444.00 219.29 444.08 220.25
  Q 444.23 222.10 441.89 221.98
  C 441.39 221.96 441.00 221.55 441.00 221.05
  Q 441.00 212.25 441.00 204.25
  Q 441.00 201.52 442.40 199.97
  Q 443.13 199.16 443.18 199.10
  Q 452.08 187.78 461.13 176.19
  Q 462.86 173.98 465.42 173.98
  L 479.09 173.99
  Q 480.07 173.99 479.45 174.77
  L 457.48 202.60
  C 457.18 202.98 457.17 203.51 457.44 203.90
  Q 461.50 209.73 465.35 214.91
  Z"
/>
<path fill="#ffffff" d="
  M 502.05 217.66
  C 501.95 217.85 502.09 218.08 502.31 218.08
  L 515.18 218.05
  C 515.49 218.05 515.77 218.24 515.87 218.53
  Q 516.87 221.34 514.08 221.12
  Q 512.48 220.99 512.42 220.99
  Q 505.03 220.88 498.27 221.16
  Q 496.81 221.22 497.49 219.93
  Q 509.33 197.35 520.93 175.40
  Q 521.56 174.21 522.41 173.95
  Q 523.33 173.66 524.24 174.07
  C 524.49 174.19 524.60 174.50 524.47 174.76
  Q 513.86 196.58 502.05 217.66
  Z"
/>
<path fill="#ffffff" d="
  M 240.57 197.72
  L 255.95 197.96
  C 256.63 197.97 257.20 198.47 257.26 199.12
  Q 257.46 201.19 255.42 201.05
  Q 254.71 201.00 254.57 201.00
  Q 246.28 201.00 237.68 201.00
  C 237.31 201.00 237.01 200.70 237.01 200.34
  L 237.18 174.68
  C 237.18 174.41 237.41 174.18 237.69 174.17
  Q 250.99 173.72 265.03 174.28
  C 265.56 174.30 265.97 174.72 265.96 175.21
  L 265.74 186.43
  C 265.73 186.71 265.49 186.94 265.18 186.94
  L 249.52 186.99
  C 248.51 187.00 247.73 186.09 247.88 185.09
  Q 248.08 183.72 249.71 183.86
  Q 251.25 184.00 251.30 184.00
  Q 256.78 184.00 262.34 184.00
  C 262.70 184.00 263.00 183.70 263.00 183.34
  L 263.00 178.16
  C 263.00 177.52 262.49 177.01 261.85 177.01
  L 240.87 177.00
  C 240.42 177.00 240.06 177.36 240.06 177.80
  L 240.06 197.18
  C 240.06 197.48 240.29 197.72 240.57 197.72
  Z
  M 237.51 175.92
  C 237.51 175.85 237.46 175.80 237.39 175.80
  L 237.37 175.80
  C 237.30 175.80 237.25 175.85 237.25 175.92
  L 237.25 199.58
  C 237.25 199.65 237.30 199.70 237.37 199.70
  L 237.39 199.70
  C 237.46 199.70 237.51 199.65 237.51 199.58
  L 237.51 175.92
  Z"
/>
<path fill="#ffffff" d="
  M 303.79 182.25
  L 306.00 178.29
  Q 306.62 177.98 306.81 177.06
  Q 307.70 172.88 311.03 174.01
  C 311.80 174.27 312.16 175.16 311.77 175.88
  L 290.20 216.50
  C 289.84 217.18 290.34 218.00 291.11 218.00
  Q 295.86 218.00 300.06 218.00
  Q 300.18 218.00 301.43 217.89
  Q 303.68 217.70 302.96 220.35
  C 302.86 220.73 302.51 221.00 302.11 221.00
  L 285.02 221.00
  Q 283.55 221.00 284.31 219.74
  Q 287.21 214.87 289.84 209.55
  Q 292.69 203.78 295.19 199.30
  Q 299.84 190.96 303.79 182.25
  Z"
/>
<path fill="#ffffff" d="
  M 342.93 189.30
  Q 337.33 196.64 331.51 203.88
  C 331.00 204.51 330.73 205.34 330.74 206.23
  L 330.99 224.60
  C 331.00 225.37 330.36 226.00 329.57 226.00
  L 317.88 226.00
  C 317.43 226.00 317.06 225.64 317.06 225.19
  L 317.00 175.07
  C 317.00 174.57 317.35 174.14 317.84 174.04
  Q 320.25 173.51 320.08 175.46
  Q 320.00 176.45 320.00 176.53
  Q 320.00 199.02 320.00 221.98
  C 320.00 222.53 320.42 222.97 320.92 222.96
  L 327.30 222.86
  C 327.58 222.86 327.82 222.62 327.83 222.32
  Q 328.10 214.40 328.03 206.48
  Q 328.00 203.83 328.87 202.20
  Q 329.58 200.87 330.61 199.74
  Q 332.63 197.53 332.63 197.52
  Q 339.53 188.96 346.38 180.36
  Q 347.97 178.36 350.43 178.91
  C 350.72 178.98 350.85 179.32 350.68 179.56
  Q 348.77 182.20 346.86 184.48
  Q 344.02 187.86 342.93 189.30
  Z"
/>
<path fill="#ffffff" d="
  M 322.94 195.95
  L 323.06 174.81
  C 323.06 174.52 323.27 174.27 323.55 174.22
  Q 326.87 173.63 330.20 174.22
  C 330.49 174.27 330.71 174.51 330.75 174.80
  Q 331.12 177.61 331.06 180.45
  Q 331.06 180.60 331.14 183.55
  Q 331.24 187.57 328.58 190.63
  C 328.39 190.84 328.07 190.85 327.90 190.64
  Q 327.17 189.74 327.69 188.63
  C 327.85 188.29 327.92 187.96 327.89 187.68
  Q 327.51 183.61 327.71 179.53
  Q 327.75 178.65 327.43 178.04
  Q 326.54 176.35 325.71 177.93
  Q 325.44 178.46 325.44 179.25
  Q 325.46 185.24 325.33 191.22
  Q 325.33 191.33 325.46 192.88
  Q 325.63 194.77 323.98 196.39
  Q 322.93 197.42 322.94 195.95
  Z"
/>
<path fill="#ffffff" d="
  M 343.27 210.16
  Q 347.44 215.35 350.93 221.02
  C 351.08 221.25 350.99 221.56 350.75 221.68
  Q 348.69 222.73 347.56 221.19
  Q 341.51 212.88 335.60 205.07
  Q 334.35 203.41 335.66 201.76
  L 354.70 177.65
  Q 355.03 177.23 354.51 177.20
  L 348.68 176.82
  Q 346.10 176.65 344.33 178.96
  Q 335.79 190.14 327.26 200.77
  Q 325.17 203.38 325.50 206.75
  Q 325.78 209.64 325.03 220.76
  C 325.01 221.12 324.89 221.43 324.69 221.63
  Q 324.00 222.30 323.32 221.63
  C 323.12 221.43 323.00 221.12 322.99 220.76
  Q 322.90 213.99 323.18 207.23
  Q 323.18 207.19 323.09 204.27
  Q 322.98 201.11 325.10 198.68
  Q 326.29 197.32 326.33 197.27
  Q 334.97 186.29 343.45 175.17
  C 344.01 174.43 344.89 174.00 345.82 174.00
  L 359.79 174.00
  Q 361.34 174.00 360.39 175.21
  L 338.77 202.81
  C 338.49 203.17 338.48 203.67 338.76 204.02
  Q 340.03 205.64 341.03 207.10
  Q 342.29 208.94 343.27 210.16
  Z"
/>
<path fill="#ffffff" d="
  M 374.55 222.78
  L 380.20 222.92
  C 380.64 222.93 381.00 222.53 381.00 222.04
  L 381.06 174.81
  C 381.06 174.48 381.24 174.20 381.51 174.09
  Q 382.58 173.66 383.54 174.27
  C 383.79 174.43 383.94 174.72 383.94 175.05
  L 383.82 225.07
  C 383.82 225.36 383.60 225.60 383.31 225.63
  Q 378.36 226.29 371.99 225.91
  C 371.43 225.88 371.00 225.42 371.00 224.86
  L 371.00 175.33
  C 371.00 174.60 371.60 174.00 372.33 174.00
  L 377.61 174.00
  C 378.38 174.00 379.00 174.62 379.00 175.39
  L 379.00 220.14
  C 379.00 220.51 378.74 220.84 378.37 220.92
  Q 375.75 221.49 375.92 219.50
  Q 376.00 218.58 376.00 218.48
  Q 376.00 198.85 376.00 178.04
  C 376.00 177.49 375.60 177.02 375.05 176.93
  Q 373.75 176.72 373.77 178.50
  Q 373.95 200.35 374.06 222.19
  C 374.06 222.51 374.28 222.77 374.55 222.78
  Z"
/>
<path fill="#ffffff" d="
  M 406.09 221.14
  Q 416.65 225.69 428.13 219.07
  Q 429.80 218.12 428.75 216.52
  L 426.21 212.66
  C 426.05 212.40 425.70 212.33 425.44 212.50
  Q 422.71 214.26 420.11 215.20
  Q 417.35 216.20 414.28 215.93
  Q 405.30 215.11 401.31 206.94
  Q 396.91 197.90 403.67 189.91
  Q 410.32 182.06 419.97 185.14
  Q 420.62 185.34 422.27 186.22
  Q 423.62 186.94 424.75 187.00
  Q 426.47 187.09 425.88 185.94
  Q 425.65 185.49 425.07 185.11
  Q 415.60 178.94 406.00 184.50
  Q 402.17 186.72 399.81 190.64
  Q 397.65 194.25 397.23 198.70
  Q 396.33 208.38 404.31 214.44
  Q 412.49 220.65 422.70 216.63
  Q 422.81 216.59 423.62 216.14
  Q 424.87 215.43 426.22 216.57
  C 426.75 217.01 426.64 217.84 426.03 218.14
  Q 408.86 226.44 397.81 211.69
  Q 394.72 207.56 394.33 202.01
  Q 393.99 197.02 395.90 192.18
  Q 398.87 184.67 405.97 181.10
  Q 411.70 178.21 417.89 179.11
  Q 424.17 180.02 429.44 184.29
  C 430.17 184.88 430.32 185.90 429.75 186.50
  L 425.76 190.74
  C 425.46 191.06 424.93 191.07 424.51 190.76
  Q 415.84 184.29 408.20 189.41
  Q 404.28 192.05 403.03 196.41
  Q 401.67 201.20 403.81 205.69
  Q 407.01 212.38 414.36 212.84
  Q 417.56 213.05 420.91 211.52
  Q 423.78 210.20 426.35 208.30
  C 426.57 208.14 426.88 208.19 427.02 208.41
  L 433.39 218.27
  C 433.58 218.58 433.52 218.99 433.24 219.22
  Q 427.61 223.96 420.61 225.50
  Q 413.84 227.00 407.04 224.68
  Q 395.77 220.84 391.27 209.85
  Q 388.38 202.81 389.52 195.88
  Q 390.34 190.90 392.95 186.54
  Q 395.35 182.53 399.60 179.44
  Q 415.29 168.01 432.72 180.26
  Q 434.66 181.63 433.19 183.41
  C 432.68 184.03 431.76 184.08 431.18 183.53
  Q 422.39 175.20 410.79 177.69
  Q 395.77 180.92 392.75 195.25
  Q 390.93 203.89 394.94 211.12
  Q 398.73 217.97 406.09 221.14
  Z"
/>
<path fill="#ffffff" d="
  M 445.26 176.80
  Q 444.83 176.63 444.47 176.97
  Q 444.25 177.18 444.23 177.63
  Q 443.96 182.62 444.00 192.25
  Q 444.01 195.36 441.46 197.39
  Q 441.06 197.71 441.06 197.19
  L 440.93 175.08
  C 440.92 174.52 441.36 174.06 441.91 174.05
  L 447.70 174.01
  C 448.42 174.00 449.00 174.60 449.00 175.33
  Q 449.00 180.75 449.16 185.24
  Q 449.27 188.30 447.11 190.52
  Q 446.06 191.59 446.02 190.06
  L 445.73 177.57
  C 445.72 177.21 445.53 176.90 445.26 176.80
  Z"
/>
<path fill="#ffffff" d="
  M 487.26 174.49
  C 487.36 174.20 487.63 174.00 487.94 174.00
  L 517.48 174.05
  C 518.45 174.05 519.07 175.09 518.61 175.95
  Q 506.52 198.69 495.56 219.81
  Q 494.42 222.01 491.71 220.95
  C 491.46 220.85 491.35 220.55 491.48 220.31
  L 513.83 178.32
  C 514.15 177.72 513.71 177.00 513.03 177.00
  Q 500.50 177.00 488.75 177.08
  Q 486.36 177.09 487.26 174.49
  Z"
/>
<path fill="#ffffff" d="
  M 262.19 216.06
  L 243.25 216.00
  C 242.57 216.00 242.02 215.47 242.02 214.81
  L 242.04 209.81
  C 242.04 209.50 242.23 209.22 242.52 209.11
  Q 245.59 207.90 244.87 212.08
  C 244.79 212.56 245.16 213.00 245.65 213.00
  L 264.67 213.00
  C 265.40 213.00 266.00 213.59 265.99 214.31
  L 265.94 225.05
  C 265.94 225.54 265.54 225.94 265.04 225.94
  L 233.11 226.00
  C 232.50 226.00 232.00 225.50 232.00 224.88
  Q 232.00 200.64 232.00 177.01
  Q 232.00 176.93 231.96 175.99
  Q 231.83 173.28 234.37 174.46
  C 234.64 174.59 234.82 174.87 234.82 175.19
  L 234.99 222.21
  C 235.00 222.64 235.34 222.99 235.76 222.99
  L 262.30 222.83
  C 262.63 222.82 262.90 222.59 262.89 222.31
  L 262.78 216.55
  C 262.77 216.28 262.51 216.06 262.19 216.06
  Z"
/>
<path fill="#ffffff" d="
  M 445.94 222.43
  L 446.06 204.32
  C 446.06 204.00 446.17 203.68 446.38 203.42
  L 465.29 179.63
  C 465.47 179.40 465.73 179.24 466.02 179.18
  Q 469.74 178.48 468.34 180.36
  Q 460.31 191.14 451.74 201.49
  Q 451.68 201.57 450.26 203.00
  Q 448.50 204.77 448.69 207.50
  Q 449.29 216.28 448.84 225.07
  C 448.82 225.36 448.60 225.60 448.32 225.63
  Q 443.02 226.30 437.02 225.96
  C 436.44 225.93 435.99 225.45 435.99 224.87
  Q 436.10 199.88 436.00 176.25
  Q 435.99 173.37 438.37 174.46
  C 438.64 174.59 438.82 174.87 438.82 175.19
  L 438.99 222.12
  C 439.00 222.61 439.38 223.00 439.85 222.99
  L 445.45 222.95
  C 445.72 222.95 445.94 222.72 445.94 222.43
  Z"
/>
<path fill="#ffffff" d="
  M 152.09 204.59
  Q 152.58 204.70 152.41 204.97
  C 152.32 205.11 152.12 205.19 151.89 205.18
  Q 142.92 205.11 130.50 203.00
  Q 120.41 201.29 113.14 196.81
  Q 101.81 189.83 106.02 176.44
  Q 106.42 175.14 106.97 176.39
  Q 111.44 186.54 120.64 192.83
  Q 130.89 199.84 139.50 201.75
  Q 145.80 203.15 152.09 204.59
  Z"
/>
<rect fill="#ffffff" x="237.25" y="175.80" width="0.26" height="23.90" rx="0.12"/>
<path fill="#ffffff" d="
  M 200.55 187.06
  Q 204.73 182.66 207.51 177.24
  Q 208.11 176.05 208.64 177.28
  Q 212.84 187.14 204.81 194.56
  Q 199.00 199.94 190.29 201.93
  Q 180.54 204.16 168.25 205.00
  Q 164.70 205.24 162.23 204.63
  Q 161.73 204.50 162.25 204.43
  Q 171.19 203.13 179.76 200.28
  Q 191.83 196.25 200.55 187.06
  Z"
/>
<path fill="#ffffff" d="
  M 490.55 182.71
  L 502.14 183.51
  C 502.52 183.54 502.78 183.91 502.69 184.29
  Q 502.36 185.62 501.66 186.36
  Q 501.05 187.00 499.64 187.00
  Q 494.16 187.00 488.28 187.00
  C 487.57 187.00 487.00 186.43 487.00 185.72
  L 487.00 178.58
  C 487.00 178.27 487.26 178.01 487.57 178.01
  Q 494.46 177.94 500.81 178.66
  Q 502.92 178.90 505.31 178.69
  Q 507.50 178.50 509.85 178.50
  C 510.45 178.50 510.84 179.13 510.57 179.67
  Q 499.95 201.20 488.11 222.57
  C 487.99 222.79 488.15 223.06 488.40 223.06
  L 517.31 222.82
  C 517.62 222.82 517.86 222.59 517.87 222.31
  L 517.98 216.91
  C 517.99 216.41 517.56 216.00 517.02 216.00
  L 506.70 216.00
  C 506.28 216.00 505.96 215.64 506.00 215.23
  Q 506.17 213.61 507.77 213.45
  Q 513.62 212.86 519.76 213.01
  C 520.41 213.02 520.93 213.54 520.95 214.19
  Q 521.04 218.23 521.01 222.59
  Q 521.01 222.67 521.08 223.91
  Q 521.23 226.27 518.84 226.12
  Q 517.22 226.01 517.15 226.01
  Q 500.35 226.22 483.56 225.70
  C 483.33 225.70 483.19 225.45 483.30 225.25
  L 505.87 182.46
  C 505.98 182.25 505.83 182.00 505.59 182.00
  Q 498.25 182.00 491.25 182.00
  Q 490.50 182.00 490.22 182.24
  Q 489.75 182.65 490.55 182.71
  Z"
/>
<path fill="#ffffff" d="
  M 240.57 217.72
  L 260.00 218.01
  C 260.35 218.02 260.65 218.17 260.79 218.42
  Q 261.41 219.50 260.78 220.59
  C 260.63 220.84 260.33 221.00 260.00 221.00
  L 237.88 221.00
  C 237.40 221.00 237.01 220.62 237.02 220.16
  L 237.17 203.68
  C 237.17 203.40 237.40 203.18 237.68 203.17
  L 259.25 203.01
  C 259.66 203.01 260.00 202.68 260.00 202.27
  L 260.00 197.43
  C 260.00 196.64 259.34 195.99 258.52 195.98
  L 242.70 195.83
  C 242.41 195.83 242.17 195.60 242.17 195.31
  L 242.01 179.52
  C 242.01 179.23 242.24 179.00 242.53 179.00
  L 260.20 179.06
  C 260.51 179.06 260.79 179.23 260.90 179.50
  Q 261.37 180.69 260.60 181.64
  C 260.42 181.87 260.11 182.00 259.76 182.00
  L 245.56 182.00
  C 245.25 182.00 245.00 182.25 245.00 182.56
  L 245.00 192.44
  C 245.00 192.75 245.25 193.00 245.56 193.00
  L 261.91 193.00
  C 262.51 193.00 263.00 193.49 263.00 194.09
  L 263.00 204.71
  C 263.00 205.42 262.42 206.00 261.71 206.00
  L 240.56 206.00
  C 240.25 206.00 240.00 206.25 240.00 206.55
  L 240.05 217.20
  C 240.06 217.48 240.29 217.71 240.57 217.72
  Z"
/>
<path fill="#ffffff" d="
  M 275.82 222.95
  L 304.31 222.83
  C 304.64 222.82 304.90 222.59 304.89 222.31
  L 304.78 216.55
  C 304.77 216.28 304.51 216.06 304.18 216.05
  Q 299.84 215.96 295.50 216.06
  Q 291.32 216.17 293.94 213.65
  C 294.17 213.43 294.47 213.30 294.80 213.27
  Q 299.60 212.82 304.41 212.97
  Q 304.47 212.97 306.09 212.89
  Q 308.26 212.77 308.11 214.99
  Q 308.01 216.44 308.01 216.52
  Q 308.04 220.86 307.94 225.20
  C 307.93 225.65 307.57 226.00 307.12 226.00
  L 270.58 226.00
  C 270.31 226.00 270.14 225.71 270.27 225.46
  L 292.71 182.59
  C 292.85 182.32 292.65 182.00 292.34 182.00
  L 277.81 182.06
  C 277.48 182.06 277.18 182.21 277.02 182.46
  Q 276.11 183.84 278.25 183.90
  Q 282.03 183.99 285.80 184.00
  Q 285.93 184.00 287.69 183.93
  Q 291.31 183.78 288.61 186.41
  C 288.37 186.65 288.06 186.79 287.75 186.79
  L 274.68 186.85
  C 274.38 186.85 274.13 186.61 274.13 186.31
  L 274.13 179.69
  C 274.13 179.40 274.39 179.17 274.70 179.17
  L 297.32 179.17
  C 297.55 179.17 297.70 179.42 297.59 179.64
  Q 282.95 208.91 279.81 214.06
  Q 276.72 219.13 275.48 222.47
  C 275.39 222.70 275.57 222.95 275.82 222.95
  Z"
/>
<path fill="#ffffff" d="
  M 200.15 206.40
  Q 197.53 209.04 194.13 209.78
  Q 192.64 210.11 187.47 210.21
  Q 176.09 210.44 166.07 206.81
  Q 163.50 205.87 166.24 206.00
  Q 172.04 206.27 177.78 205.74
  Q 185.04 205.06 189.20 204.21
  Q 196.13 202.78 202.13 199.22
  Q 203.04 198.68 203.00 199.73
  Q 202.87 203.67 200.15 206.40
  Z"
/>
<path fill="#ffffff" d="
  M 149.31 206.38
  Q 149.95 206.39 149.49 206.81
  C 149.36 206.93 149.16 207.00 148.95 206.99
  Q 147.63 206.97 146.75 207.25
  Q 135.65 210.71 123.99 210.21
  Q 118.08 209.96 114.31 206.69
  Q 111.40 204.16 111.93 199.75
  C 111.96 199.51 112.23 199.37 112.45 199.48
  Q 119.53 203.18 124.00 204.00
  Q 136.55 206.29 149.31 206.38
  Z"
/>
<path fill="#ffffff" d="
  M 472.27 222.85
  C 472.82 222.72 473.06 222.06 472.73 221.60
  Q 466.38 212.89 460.65 205.00
  Q 459.92 204.00 459.96 203.20
  Q 460.01 201.82 461.57 201.89
  C 461.87 201.90 462.16 202.07 462.37 202.35
  Q 469.94 212.66 477.58 222.93
  Q 478.48 224.15 479.60 224.99
  Q 480.92 226.00 479.26 226.00
  L 464.61 226.00
  C 463.76 226.00 462.97 225.59 462.48 224.91
  Q 457.32 217.81 452.19 211.03
  Q 450.57 208.89 450.86 207.13
  Q 451.26 204.65 452.81 206.68
  L 464.75 222.31
  C 464.94 222.56 465.22 222.73 465.55 222.80
  Q 469.19 223.59 472.27 222.85
  Z"
/>
<path fill="#ffffff" d="
  M 353.59 222.96
  Q 355.49 222.88 354.36 221.35
  L 341.54 204.16
  C 341.35 203.90 341.31 203.56 341.43 203.28
  Q 342.52 200.72 344.44 203.30
  Q 352.64 214.34 360.65 224.94
  Q 361.46 226.00 360.12 226.00
  L 347.08 226.00
  Q 345.00 226.00 343.76 224.33
  Q 339.17 218.11 334.23 211.78
  Q 332.23 209.22 333.09 206.23
  Q 333.24 205.71 333.57 206.14
  L 345.34 221.73
  Q 346.52 223.29 348.41 223.21
  L 353.59 222.96
  Z"
/>
<path fill="#ffffff" d="
  M 184.31 212.44
  Q 189.85 212.77 195.52 211.44
  Q 197.24 211.03 196.39 212.58
  Q 194.05 216.81 190.06 217.78
  Q 187.33 218.44 182.50 217.19
  Q 174.25 215.07 167.23 210.02
  Q 166.97 209.83 166.60 209.69
  Q 165.29 209.19 166.66 208.83
  Q 166.98 208.74 167.32 208.84
  Q 178.80 212.11 184.31 212.44
  Z"
/>
<path fill="#ffffff" d="
  M 118.94 214.31
  Q 116.16 210.76 119.57 211.44
  Q 121.39 211.80 121.58 211.83
  Q 133.72 213.35 145.39 209.54
  Q 147.02 209.01 148.60 209.00
  Q 149.38 209.00 148.74 209.44
  Q 140.42 215.20 130.87 217.77
  Q 123.26 219.83 118.94 214.31
  Z"
/>
<path fill="#ffffff" d="
  M 166.92 212.42
  Q 175.81 218.32 186.26 220.40
  C 186.53 220.46 186.68 220.73 186.58 220.97
  Q 186.18 221.87 185.44 222.19
  Q 180.03 224.50 174.81 221.19
  Q 171.00 218.77 165.89 213.53
  Q 165.55 213.18 165.39 212.75
  Q 164.37 210.05 166.26 211.89
  Q 166.60 212.22 166.92 212.42
  Z"
/>
<path fill="#ffffff" d="
  M 130.19 222.56
  Q 128.92 222.12 128.45 220.80
  C 128.36 220.56 128.54 220.30 128.81 220.27
  Q 132.91 219.86 136.66 218.12
  Q 143.28 215.06 149.23 211.42
  Q 150.06 210.91 149.47 211.68
  Q 144.80 217.73 139.20 221.27
  Q 136.91 222.71 134.93 223.00
  Q 132.48 223.35 130.19 222.56
  Z"
/>
<path fill="#ffffff" d="
  M 139.43 224.86
  Q 138.96 224.67 139.40 224.41
  Q 146.80 220.00 150.72 214.08
  Q 152.32 211.66 151.44 214.42
  Q 149.56 220.34 144.81 224.29
  Q 142.60 226.12 139.43 224.86
  Z"
/>
<path fill="#ffffff" d="
  M 174.04 223.74
  Q 175.73 224.94 173.66 225.77
  C 173.36 225.89 173.03 225.89 172.71 225.79
  Q 169.15 224.65 167.03 221.50
  Q 164.81 218.18 163.55 215.21
  Q 162.74 213.30 164.17 214.80
  Q 168.40 219.22 173.12 223.08
  Q 173.21 223.15 174.04 223.74
  Z"
/>
</svg>
